# xmcd
#
# Track frame offsets: 
#        150
#        10919
#        30227
#        43555
#        56740
#        70025
#        86486
#        100731
#        117324
#        131226
#        146491
#        159893
#        175168
#        193105
#        207960
#        223751
#        241115
#        254885
#        266180
#        279772
#        298484
#        316370
#
# Disc length: 4436 seconds
#
# Revision: 0
# Processed by: cddbd v1.5.2PL0 Copyright (c) Steve Scherf et al.
# Submitted via: ExactAudioCopy v0.95a5
#
DISCID=4a115216
DTITLE=Евгения Смольянинова - В лунном сиянии...
DYEAR=1997
DGENRE=Pop-Folk
TTITLE0=В лунном сиянии
TTITLE1=Степь да степь кругом
TTITLE2=Затворница
TTITLE3=Вот мчится тройка удалая
TTITLE4=Мой миленький дружок
TTITLE5=Ах, что делает любовь
TTITLE6=Мой костёр
TTITLE7=Кончилось счастье
TTITLE8=При лунном свете
TTITLE9=Не обмани
TTITLE10=Звёзды на небе
TTITLE11=Жалобно стонет ветер осенний
TTITLE12=Не пробуждай воспоминаний
TTITLE13=Отцвели хризантемы
TTITLE14=Белой акации гроздья душистые
TTITLE15=Снежинки
TTITLE16=Побудь со мной
TTITLE17=Лебединая песня
TTITLE18=Я ехала домой
TTITLE19=У камина
TTITLE20=Утро туманное
TTITLE21=В лунном сиянии
EXTD=
EXTT0=
EXTT1=
EXTT2=
EXTT3=
EXTT4=
EXTT5=
EXTT6=
EXTT7=
EXTT8=
EXTT9=
EXTT10=
EXTT11=
EXTT12=
EXTT13=
EXTT14=
EXTT15=
EXTT16=
EXTT17=
EXTT18=
EXTT19=
EXTT20=
EXTT21=
PLAYORDER=
